<?xml version="1.0" encoding="UTF-8" standalone="no"?>
<!-- Created with Inkscape (http://www.inkscape.org/) -->

<svg
   width="256"
   height="256"
   viewBox="0 0 340.25316 340.25316"
   id="svg2472"
   sodipodi:version="0.32"
   inkscape:version="1.2.1 (9c6d41e410, 2022-07-14)"
   version="1.0"
   sodipodi:docname="logo.svg"
   inkscape:output_extension="org.inkscape.output.svg.inkscape"
   xmlns:inkscape="http://www.inkscape.org/namespaces/inkscape"
   xmlns:sodipodi="http://sodipodi.sourceforge.net/DTD/sodipodi-0.dtd"
   xmlns="http://www.w3.org/2000/svg"
   xmlns:svg="http://www.w3.org/2000/svg"
   xmlns:rdf="http://www.w3.org/1999/02/22-rdf-syntax-ns#"
   xmlns:cc="http://creativecommons.org/ns#"
   xmlns:dc="http://purl.org/dc/elements/1.1/">
  <defs
     id="defs2474">
    <inkscape:perspective
       sodipodi:type="inkscape:persp3d"
       inkscape:vp_x="0 : 446.43425 : 1"
       inkscape:vp_y="0 : 999.99999 : 0"
       inkscape:vp_z="744.09447 : 446.43425 : 1"
       inkscape:persp3d-origin="372.04724 : 271.04055 : 1"
       id="perspective2480" />
    <inkscape:perspective
       id="perspective2509"
       inkscape:persp3d-origin="372.04724 : 271.04055 : 1"
       inkscape:vp_z="744.09447 : 446.43425 : 1"
       inkscape:vp_y="0 : 999.99999 : 0"
       inkscape:vp_x="0 : 446.43425 : 1"
       sodipodi:type="inkscape:persp3d" />
    <inkscape:perspective
       id="perspective2578"
       inkscape:persp3d-origin="372.04724 : 271.04055 : 1"
       inkscape:vp_z="744.09447 : 446.43425 : 1"
       inkscape:vp_y="0 : 999.99999 : 0"
       inkscape:vp_x="0 : 446.43425 : 1"
       sodipodi:type="inkscape:persp3d" />
  </defs>
  <sodipodi:namedview
     id="base"
     pagecolor="#ffffff"
     bordercolor="#666666"
     borderopacity="1.0"
     gridtolerance="10000"
     guidetolerance="10"
     objecttolerance="10"
     inkscape:pageopacity="0.0"
     inkscape:pageshadow="2"
     inkscape:zoom="1.7249545"
     inkscape:cx="157.97518"
     inkscape:cy="130.43822"
     inkscape:document-units="px"
     inkscape:current-layer="layer1"
     showgrid="false"
     inkscape:window-width="1366"
     inkscape:window-height="705"
     inkscape:window-x="-8"
     inkscape:window-y="-8"
     inkscape:showpageshadow="0"
     inkscape:pagecheckerboard="0"
     inkscape:deskcolor="#d1d1d1"
     inkscape:window-maximized="1" />
  <metadata
     id="metadata2477">
    <rdf:RDF>
      <cc:Work
         rdf:about="">
        <dc:format>image/svg+xml</dc:format>
        <dc:type
           rdf:resource="http://purl.org/dc/dcmitype/StillImage" />
      </cc:Work>
    </rdf:RDF>
  </metadata>
  <g
     inkscape:label="Layer 1"
     inkscape:groupmode="layer"
     id="layer1">
    <g
       id="g44"
       transform="matrix(0.78120082,0,0,0.78128003,6.0206268,6.1890004)">
      <circle
         transform="matrix(1.200414,0,0,1.2002923,-300.34332,-130.40746)"
         style="fill:#0032a0;fill-opacity:1"
         id="circle6"
         r="170.07861"
         cy="283.46387"
         cx="425.19678" />
      <path
         sodipodi:type="inkscape:offset"
         inkscape:radius="0"
         inkscape:original="M 425.1875 120.46875 C 335.21568 120.46875 262.21875 193.49693 262.21875 283.46875 C 262.21875 373.44057 335.21568 446.46875 425.1875 446.46875 C 515.15932 446.46875 588.1875 373.44057 588.1875 283.46875 C 588.1875 193.49693 515.15932 120.46875 425.1875 120.46875 z "
         style="fill:#ffffff"
         id="path2537"
         d="m 425.1875,120.46875 c -89.97182,0 -162.96875,73.02818 -162.96875,163 0,89.97182 72.99693,163 162.96875,163 89.97182,0 163,-73.02818 163,-163 0,-89.97182 -73.02818,-163 -163,-163 z"
         transform="matrix(1.200414,0,0,1.2002923,-300.35097,-130.40746)" />
      <path
         sodipodi:type="inkscape:offset"
         inkscape:radius="-6.0611968"
         inkscape:original="M 425.1875 120.46875 C 335.21568 120.46875 262.21875 193.49693 262.21875 283.46875 C 262.21875 373.44057 335.21568 446.46875 425.1875 446.46875 C 515.15932 446.46875 588.1875 373.44057 588.1875 283.46875 C 588.1875 193.49693 515.15932 120.46875 425.1875 120.46875 z "
         style="fill:#ef3340;fill-opacity:1"
         id="path2543"
         d="m 425.1875,126.5293 c -86.69199,0 -156.9082,70.24605 -156.9082,156.93945 0,86.6934 70.21621,156.93945 156.9082,156.93945 86.69199,0 156.93945,-70.24746 156.93945,-156.93945 0,-86.69199 -70.24746,-156.93945 -156.93945,-156.93945 z"
         transform="matrix(1.200414,0,0,1.2002923,-300.35097,-130.39217)" />
      <g
         id="g2675"
         transform="matrix(0.5674463,0,0,0.5488969,321.42012,207.79849)"
         style="fill:#f8e600;fill-opacity:1">
        <g
           transform="matrix(2.2748937,0,0,2.2936459,-1163.5098,-683.60347)"
           id="g2651"
           style="fill:#f8e600;fill-opacity:1">
          <path
             style="fill:#f8e600;fill-opacity:1"
             id="path2653"
             d="m 459.2124,283.55078 c 37.84571,18.91748 49.60694,67.11817 49.60694,84.95313 h -14.17383 c 0,-32.75147 -12.02295,-59.85547 -39.68506,-84.95313 27.66211,-25.11182 39.68506,-52.39746 39.68506,-85.12549 h 14.17383 c 0,17.81299 -11.76123,66.20459 -49.60694,85.12549" />
          <path
             style="fill:#f8e600;fill-opacity:1"
             id="path2655"
             d="m 452.12598,283.55078 c 14.19531,12.37793 40.03759,38.37158 39.68506,84.95313 H 477.6377 c 0,-20.73536 -7.21094,-57.29786 -29.76368,-84.95313 22.55274,-27.65771 29.76368,-64.39258 29.76368,-85.12549 h 14.17334 c 0.35253,46.55713 -25.48975,72.75733 -39.68506,85.12549" />
          <path
             style="fill:#f8e600;fill-opacity:1"
             id="path2657"
             d="m 445.03955,283.55078 c 9.82666,11.99072 30.12256,42.01563 29.76367,84.95313 h -14.17334 c 0.73584,-18.92383 -3.11865,-62.05371 -19.84228,-84.95313 16.72363,-22.92724 20.57812,-66.21533 19.84228,-85.12549 h 14.17334 c 0.35889,42.92578 -19.93701,73.11963 -29.76367,85.12549" />
          <path
             style="fill:#f8e600;fill-opacity:1"
             id="path2659"
             d="m 437.95264,283.55078 c 8.7124,10.18164 20.57812,43.46338 19.84228,84.95313 h -14.17285 c 0,-22.9292 0.26465,-63.8628 -9.92139,-84.95313 10.18604,-21.10547 9.92139,-62.2207 9.92139,-85.12549 h 14.17285 c 0.73584,41.46485 -11.12988,74.92871 -19.84228,85.12549" />
          <path
             style="fill:#f8e600;fill-opacity:1"
             id="path2661"
             d="m 426.61426,368.50391 h 14.17334 c 0.36181,-31.30371 -1.54297,-66.39698 -9.92139,-84.95313 8.37842,-18.5581 10.2832,-53.85693 9.92139,-85.12549 h -14.17334 z" />
        </g>
        <g
           transform="matrix(2.2748937,0,0,2.2936459,-1163.5098,-683.60347)"
           id="g2663"
           style="fill:#f8e600;fill-opacity:1">
          <path
             style="fill:#f8e600;fill-opacity:1"
             id="path2665"
             d="m 391.18164,283.55078 c -37.8457,18.91748 -49.60742,67.11817 -49.60742,84.95313 h 14.17383 c 0,-32.75196 12.02343,-59.85547 39.68554,-84.95313 -27.66211,-25.11182 -39.68554,-52.39746 -39.68554,-85.12549 h -14.17383 c 0,17.81299 11.76172,66.20459 49.60742,85.12549" />
          <path
             style="fill:#f8e600;fill-opacity:1"
             id="path2667"
             d="m 398.26758,283.55078 c -14.19531,12.37793 -40.03711,38.37158 -39.68457,84.95313 h 14.17285 c 0,-20.73536 7.21094,-57.29786 29.76367,-84.95313 -22.55273,-27.65771 -29.76367,-64.39258 -29.76367,-85.12549 h -14.17285 c -0.35254,46.55713 25.48926,72.75733 39.68457,85.12549" />
          <path
             style="fill:#f8e600;fill-opacity:1"
             id="path2669"
             d="m 405.35449,283.55078 c -9.82715,11.99072 -30.12304,42.01563 -29.76367,84.95313 h 14.17285 c -0.73535,-18.92383 3.11914,-62.05371 19.84278,-84.95313 -16.72364,-22.92724 -20.57813,-66.21533 -19.84278,-85.12549 h -14.17285 c -0.35937,42.92578 19.93652,73.11963 29.76367,85.12549" />
          <path
             style="fill:#f8e600;fill-opacity:1"
             id="path2671"
             d="m 412.44141,283.55078 c -8.71289,10.18164 -20.57813,43.46289 -19.84278,84.95313 h 14.17285 c 0,-22.92969 -0.26464,-63.8628 9.92188,-84.95313 -10.18652,-21.10547 -9.92188,-62.2207 -9.92188,-85.12549 h -14.17285 c -0.73535,41.46485 11.12989,74.92871 19.84278,85.12549" />
          <path
             style="fill:#f8e600;fill-opacity:1"
             id="path2673"
             d="m 423.7793,368.50391 h -14.17285 c -0.36231,-31.30371 1.54296,-66.39698 9.92089,-84.95313 -8.37793,-18.5581 -10.2832,-53.85693 -9.92089,-85.12549 h 14.17285 z" />
        </g>
      </g>
      <path
         sodipodi:type="inkscape:offset"
         inkscape:radius="0"
         inkscape:original="M 204.28125 61.84375 C 187.86345 61.691374 175.41788 70.316741 171.03125 85.40625 C 169.08664 92.09548 169.63697 105.59795 172.125 112.625 C 175.38664 121.83703 183.77987 128.81455 194.625 131.28125 C 203.10136 133.20917 215.57938 132.21656 222.46875 129.0625 C 229.19286 125.9841 231.9575 123.61938 235.8125 117.625 C 240.23898 110.74201 240.07848 110.5625 228.71875 110.5625 C 219.6425 110.5625 218.6412 110.75748 217.625 112.65625 C 215.12723 117.32338 204.13194 119.06672 197.75 115.8125 C 193.61844 113.70576 190.9217 110.19932 190.0625 105.8125 L 189.40625 102.5625 L 214.6875 102.5625 L 239.9375 102.5625 L 239.4375 94.15625 C 238.28531 75.68805 228.98661 65.1419 211.53125 62.4375 C 209.03539 62.050812 206.62665 61.865518 204.28125 61.84375 z M 279.375 61.84375 C 269.32098 62.172715 260.32098 65.049467 255.96875 69.71875 C 253.25764 72.62736 249.71694 80.296879 249.6875 83.3125 C 249.66628 85.48645 249.99547 85.562499 259 85.5625 L 268.3125 85.5625 L 269.75 82.34375 C 271.75179 77.81228 274.96338 76.430828 282.5625 76.84375 C 287.77563 77.12702 289.28835 77.617732 290.8125 79.5 C 295.60348 85.41661 292.18276 87.862007 276.15625 90.09375 C 255.51414 92.96822 248.62713 97.853352 247.84375 110.15625 C 247.62122 113.65109 247.74162 117.6595 248.09375 119.0625 C 249.1718 123.35778 255.45159 129.4272 260.53125 131.0625 C 266.10124 132.85564 277.53249 132.42476 282.65625 130.21875 C 284.58125 129.38995 287.73125 127.53166 289.65625 126.09375 L 293.15625 123.46875 L 294.03125 127.03125 L 294.875 130.5625 L 305.78125 130.5625 C 317.55963 130.5625 318.44656 130.07994 314.4375 125.8125 C 312.27183 123.50725 312.17946 122.59367 311.6875 98.5625 L 311.15625 73.6875 L 308.15625 70.53125 C 303.75791 65.90688 298.64339 63.64594 289.65625 62.375 C 286.20291 61.886633 282.72634 61.734095 279.375 61.84375 z M 49.75 61.9375 C 42.81076 62.086488 36.155471 63.281945 31.84375 65.5 C 25.068737 68.98524 19.656251 76.751129 19.65625 83.03125 C 19.65625 85.56305 19.65745 85.562499 29.15625 85.5625 C 37.13999 85.5625 38.656251 85.325229 38.65625 84 C 38.65625 83.13269 39.986059 81.107689 41.59375 79.5 C 44.117415 76.97633 45.272567 76.562499 50.03125 76.5625 C 53.062753 76.5625 56.653886 77.007584 58.03125 77.53125 C 62.788194 79.33984 63.846595 85.324291 59.78125 87.5 C 58.815243 88.01699 52.652993 89.18935 46.09375 90.09375 C 39.534506 90.99815 32.022753 92.658766 29.40625 93.78125 C 18.548097 98.43937 13.745093 110.54862 18.5625 121.15625 C 20.663191 125.78184 24.87448 129.17729 31 131.1875 C 39.489876 133.97363 54.341945 131.04276 60.375 125.375 C 62.722307 123.16982 63.140116 123.47528 63.875 128.0625 C 64.168938 129.8973 65.086347 130.08337 74.9375 130.34375 C 86.314171 130.64446 87.402189 130.13991 83.90625 126.28125 C 82.363162 124.57805 82.138942 121.6291 81.90625 101.21875 C 81.761107 88.487815 81.400302 77.071158 81.125 75.84375 C 80.239781 71.89709 74.794516 66.750282 69.28125 64.6875 C 63.908686 62.677365 56.68924 61.788512 49.75 61.9375 z M 126.6875 62.15625 C 120.65263 62.17574 114.80458 62.78092 111.75 63.9375 C 101.25987 67.90948 96.133547 75.374548 96.875 85.625 C 97.633903 96.11672 103.37795 100.11941 124.21875 104.59375 C 140.25992 108.03765 141.88732 108.75197 141.46875 112.375 C 140.97812 116.62188 135.75911 118.7881 127.3125 118.25 C 119.72774 117.7668 115.6177 115.55597 114.65625 111.46875 C 114.10871 109.14114 113.73361 109.05651 103.875 108.78125 C 93.821813 108.50056 93.665867 108.53068 93.6875 110.78125 C 93.720316 114.19547 97.025267 120.72871 100.28125 123.78125 C 103.94702 127.21796 110.91066 130.27426 117.78125 131.5 C 125.1211 132.80945 139.0602 132.05317 145.34375 130 C 156.12993 126.47557 162.18155 118.44808 161.46875 108.59375 C 160.68246 97.723395 154.23179 93.12154 134.03125 89.09375 C 116.84512 85.66701 113.89093 83.904559 117.125 78.96875 C 120.14031 74.3668 133.32311 74.47323 137.40625 79.125 C 138.64375 80.53484 139.65625 82.330674 139.65625 83.125 C 139.65625 84.28876 141.63363 84.562499 149.78125 84.5625 L 159.90625 84.5625 L 159.1875 80.84375 C 157.63444 72.56521 151.84922 66.634778 142.65625 63.84375 C 138.91899 62.7091 132.72237 62.13676 126.6875 62.15625 z M 370.65625 62.15625 C 361.57973 62.10819 357.22916 63.504401 352.21875 68.09375 C 350.1294 70.00753 348.23713 71.562499 348.03125 71.5625 C 347.82538 71.5625 347.65625 69.762499 347.65625 67.5625 L 347.65625 63.5625 L 338.15625 63.5625 L 328.65625 63.5625 L 328.65625 97.0625 L 328.65625 130.5625 L 338.65625 130.5625 L 348.65625 130.5625 L 348.6875 109.8125 C 348.70658 91.783415 348.95406 88.541398 350.5625 85 C 352.84027 79.98488 357.42078 77.562499 364.65625 77.5625 C 369.04353 77.5625 370.27226 78.022239 372.75 80.5 L 375.65625 83.40625 L 375.65625 107 L 375.65625 130.5625 L 385.65625 130.5625 L 395.65625 130.5625 L 395.65625 104.53125 C 395.65625 76.252485 395.39663 74.534388 390.0625 69.1875 C 385.31012 64.42374 379.16491 62.2013 370.65625 62.15625 z M 203.78125 76.90625 C 211.29917 76.902913 218.65625 81.843717 218.65625 88.53125 C 218.65625 90.49986 218.10265 90.562499 204.65625 90.5625 C 190.80329 90.5625 190.65255 90.538869 190.65625 88.3125 C 190.66098 85.46454 193.974 80.008117 196.5 78.65625 C 198.7758 77.438278 201.27528 76.907362 203.78125 76.90625 z M 292.65625 98.8125 L 292.65625 103.9375 C 292.65168 110.21653 290.21181 114.59301 285.46875 116.84375 C 277.36083 120.69121 270.45463 119.72365 267.875 114.34375 C 266.81232 112.12751 266.85626 111.07442 268.0625 108.1875 C 269.29241 105.24392 270.33906 104.44418 274.78125 103.125 C 277.67328 102.26616 281.18109 101.55539 282.59375 101.53125 C 284.00643 101.50711 286.84375 100.89229 288.90625 100.15625 L 292.65625 98.8125 z M 61.96875 99.5625 C 62.502227 99.5625 62.726762 101.98246 62.46875 105.09375 C 61.980788 110.97793 59.678398 114.4466 54.53125 117.125 C 47.570107 120.74734 38.358699 119.16495 37.09375 114.125 C 36.171239 110.44942 37.32987 106.84329 40 105.09375 C 41.928164 103.83037 58.862779 99.562499 61.96875 99.5625 z "
         style="fill:#0032a0;fill-opacity:1"
         id="path2586"
         d="m 204.28125,61.84375 c -16.4178,-0.152376 -28.86337,8.472991 -33.25,23.5625 -1.94461,6.68923 -1.39428,20.1917 1.09375,27.21875 3.26164,9.21203 11.65487,16.18955 22.5,18.65625 8.47636,1.92792 20.95438,0.93531 27.84375,-2.21875 6.72411,-3.0784 9.48875,-5.44312 13.34375,-11.4375 4.42648,-6.88299 4.26598,-7.0625 -7.09375,-7.0625 -9.07625,0 -10.07755,0.19498 -11.09375,2.09375 -2.49777,4.66713 -13.49306,6.41047 -19.875,3.15625 -4.13156,-2.10674 -6.8283,-5.61318 -7.6875,-10 l -0.65625,-3.25 h 25.28125 25.25 l -0.5,-8.40625 C 238.28531,75.68805 228.98661,65.1419 211.53125,62.4375 c -2.49586,-0.386688 -4.9046,-0.571982 -7.25,-0.59375 z m 75.09375,0 c -10.05402,0.328965 -19.05402,3.205717 -23.40625,7.875 -2.71111,2.90861 -6.25181,10.578129 -6.28125,13.59375 -0.0212,2.17395 0.30797,2.249999 9.3125,2.25 h 9.3125 l 1.4375,-3.21875 c 2.00179,-4.53147 5.21338,-5.912922 12.8125,-5.5 5.21313,0.28327 6.72585,0.773982 8.25,2.65625 4.79098,5.91661 1.37026,8.362007 -14.65625,10.59375 -20.64211,2.87447 -27.52912,7.759602 -28.3125,20.0625 -0.22253,3.49484 -0.10213,7.50325 0.25,8.90625 1.07805,4.29528 7.35784,10.3647 12.4375,12 5.56999,1.79314 17.00124,1.36226 22.125,-0.84375 1.925,-0.8288 5.075,-2.68709 7,-4.125 l 3.5,-2.625 0.875,3.5625 0.84375,3.53125 h 10.90625 c 11.77838,0 12.66531,-0.48256 8.65625,-4.75 -2.16567,-2.30525 -2.25804,-3.21883 -2.75,-27.25 l -0.53125,-24.875 -3,-3.15625 c -4.39834,-4.62437 -9.51286,-6.88531 -18.5,-8.15625 -3.45334,-0.488367 -6.92991,-0.640905 -10.28125,-0.53125 z M 49.75,61.9375 c -6.93924,0.148988 -13.594529,1.344445 -17.90625,3.5625 -6.775013,3.48524 -12.187499,11.251129 -12.1875,17.53125 0,2.5318 0.0012,2.531249 9.5,2.53125 7.98374,0 9.500001,-0.237271 9.5,-1.5625 0,-0.86731 1.329809,-2.892311 2.9375,-4.5 2.523665,-2.52367 3.678817,-2.937501 8.4375,-2.9375 3.031503,0 6.622636,0.445084 8,0.96875 4.756944,1.80859 5.815345,7.793041 1.75,9.96875 -0.966007,0.51699 -7.128257,1.68935 -13.6875,2.59375 -6.559244,0.9044 -14.070997,2.565016 -16.6875,3.6875 -10.858153,4.65812 -15.661157,16.76737 -10.84375,27.375 2.100691,4.62559 6.31198,8.02104 12.4375,10.03125 8.489876,2.78613 23.341945,-0.14474 29.375,-5.8125 2.347307,-2.20518 2.765116,-1.89972 3.5,2.6875 0.293938,1.8348 1.211347,2.02087 11.0625,2.28125 11.376671,0.30071 12.464689,-0.20384 8.96875,-4.0625 -1.543088,-1.7032 -1.767308,-4.65215 -2,-25.0625 C 81.761107,88.487815 81.400302,77.071158 81.125,75.84375 80.239781,71.89709 74.794516,66.750282 69.28125,64.6875 63.908686,62.677365 56.68924,61.788512 49.75,61.9375 Z m 76.9375,0.21875 c -6.03487,0.01949 -11.88292,0.62467 -14.9375,1.78125 -10.49013,3.97198 -15.616453,11.437048 -14.875,21.6875 0.758903,10.49172 6.50295,14.49441 27.34375,18.96875 16.04117,3.4439 17.66857,4.15822 17.25,7.78125 -0.49063,4.24688 -5.70964,6.4131 -14.15625,5.875 -7.58476,-0.4832 -11.6948,-2.69403 -12.65625,-6.78125 -0.54754,-2.32761 -0.92264,-2.41224 -10.78125,-2.6875 -10.053187,-0.28069 -10.209133,-0.25057 -10.1875,2 0.03282,3.41422 3.337767,9.94746 6.59375,13 3.66577,3.43671 10.62941,6.49301 17.5,7.71875 7.33985,1.30945 21.27895,0.55317 27.5625,-1.5 10.78618,-3.52443 16.8378,-11.55192 16.125,-21.40625 -0.78629,-10.870355 -7.23696,-15.47221 -27.4375,-19.5 -17.18613,-3.42674 -20.14032,-5.189191 -16.90625,-10.125 3.01531,-4.60195 16.19811,-4.49552 20.28125,0.15625 1.2375,1.40984 2.25,3.205674 2.25,4 0,1.16376 1.97738,1.437499 10.125,1.4375 h 10.125 l -0.71875,-3.71875 c -1.55306,-8.27854 -7.33828,-14.208972 -16.53125,-17 -3.73726,-1.13465 -9.93388,-1.70699 -15.96875,-1.6875 z m 243.96875,0 c -9.07652,-0.04806 -13.42709,1.348151 -18.4375,5.9375 -2.08935,1.91378 -3.98162,3.468749 -4.1875,3.46875 -0.20587,0 -0.375,-1.800001 -0.375,-4 v -4 h -9.5 -9.5 v 33.5 33.5 h 10 10 l 0.0312,-20.75 c 0.0191,-18.029085 0.26656,-21.271102 1.875,-24.8125 2.27777,-5.01512 6.85828,-7.437501 14.09375,-7.4375 4.38728,0 5.61601,0.459739 8.09375,2.9375 l 2.90625,2.90625 V 107 130.5625 h 10 10 v -26.03125 c 0,-28.278765 -0.25962,-29.996862 -5.59375,-35.34375 -4.75238,-4.76376 -10.89759,-6.9862 -19.40625,-7.03125 z m -166.875,14.75 c 7.51792,-0.0033 14.875,4.937467 14.875,11.625 0,1.96861 -0.5536,2.031249 -14,2.03125 -13.85296,0 -14.0037,-0.02363 -14,-2.25 0.005,-2.84796 3.31775,-8.304383 5.84375,-9.65625 2.2758,-1.217972 4.77528,-1.748888 7.28125,-1.75 z m 88.875,21.90625 v 5.125 c -0.005,6.27903 -2.44444,10.65551 -7.1875,12.90625 -8.10792,3.84746 -15.01412,2.8799 -17.59375,-2.5 -1.06268,-2.21624 -1.01874,-3.26933 0.1875,-6.15625 1.22991,-2.94358 2.27656,-3.74332 6.71875,-5.0625 2.89203,-0.85884 6.39984,-1.56961 7.8125,-1.59375 1.41268,-0.0241 4.25,-0.63896 6.3125,-1.375 z m -230.6875,0.75 c 0.533477,0 0.758012,2.41996 0.5,5.53125 -0.487962,5.88418 -2.790352,9.35285 -7.9375,12.03125 -6.961143,3.62234 -16.172551,2.03995 -17.4375,-3 -0.922511,-3.67558 0.23612,-7.28171 2.90625,-9.03125 1.928164,-1.26338 18.862779,-5.531251 21.96875,-5.53125 z"
         transform="matrix(0.5932776,0,0,0.6159925,87.750024,267.23262)" />
    </g>
  </g>
</svg>
